<?xml version="1.0" encoding="utf-8"?>
<!-- Generator: Adobe Illustrator 17.0.0, SVG Export Plug-In . SVG Version: 6.00 Build 0)  -->
<!DOCTYPE svg PUBLIC "-//W3C//DTD SVG 1.1//EN" "http://www.w3.org/Graphics/SVG/1.1/DTD/svg11.dtd">
<svg width="100%" height="100%" viewBox="0 0 154 86" preserveAspectRatio="none"
	version="1.1" id="图层_1" xmlns="http://www.w3.org/2000/svg" xmlns:xlink="http://www.w3.org/1999/xlink"  enable-background="new 0 0 154 86" xml:space="preserve">
<g>
	<path fill="#757575" d="M151,74c0,4.418-3.562,8-7.955,8H10.955C6.562,82,3,78.418,3,74V14c0-4.418,3.562-8,7.955-8h132.089
		C147.438,6,151,9.582,151,14V74z"/>
	<path fill="#FFFFFF" d="M151,72c0,4.418-3.562,8-7.955,8H10.955C6.562,80,3,76.418,3,72V12c0-4.418,3.562-8,7.955-8h132.089
		C147.438,4,151,7.582,151,12V72z"/>
</g>
</svg>
