<?xml version="1.0" encoding="utf-8"?>
<!-- Generator: Adobe Illustrator 17.0.0, SVG Export Plug-In . SVG Version: 6.00 Build 0)  -->
<!DOCTYPE svg PUBLIC "-//W3C//DTD SVG 1.1//EN" "http://www.w3.org/Graphics/SVG/1.1/DTD/svg11.dtd">
<svg width="100%" height="100%" viewBox="0 0 38 26" preserveAspectRatio="none"
	version="1.1" id="图层_1" xmlns="http://www.w3.org/2000/svg" xmlns:xlink="http://www.w3.org/1999/xlink"  enable-background="new 0 0 38 26" xml:space="preserve">
<path fill="#FFFFFF" d="M34.722,0h-22L0.278,13l12.445,13h22c1.657,0,3-1.343,3-3V3C37.722,1.343,36.379,0,34.722,0z"/>
<g>
	<path fill="#ACB3BD" d="M29.547,18.849c-0.383,0.383-1.003,0.383-1.385,0L17.849,8.536c-0.383-0.383-0.383-1.003,0-1.385l0,0
		c0.383-0.383,1.003-0.383,1.385,0l10.313,10.313C29.93,17.847,29.93,18.467,29.547,18.849L29.547,18.849z"/>
	<path fill="#ACB3BD" d="M17.849,18.849c-0.383-0.383-0.383-1.003,0-1.385L28.162,7.151c0.383-0.383,1.003-0.383,1.385,0l0,0
		c0.383,0.383,0.383,1.003,0,1.385L19.234,18.849C18.851,19.232,18.231,19.232,17.849,18.849L17.849,18.849z"/>
</g>
</svg>
