<?xml version="1.0" encoding="utf-8"?>
<!-- Generator: Adobe Illustrator 17.0.0, SVG Export Plug-In . SVG Version: 6.00 Build 0)  -->
<!DOCTYPE svg PUBLIC "-//W3C//DTD SVG 1.1//EN" "http://www.w3.org/Graphics/SVG/1.1/DTD/svg11.dtd">
<svg width="100%" height="100%" viewBox="0 0 83 146" preserveAspectRatio="none"
	version="1.1" id="图层_1" xmlns="http://www.w3.org/2000/svg" xmlns:xlink="http://www.w3.org/1999/xlink"  enable-background="new 0 0 83 146" xml:space="preserve">
<g>
	<path fill="#FFFFFF" d="M54.459,141.5l-0.5-0.031H36.056c-4.142,0-7.512-3.363-7.512-7.498l-0.003-56.279
		C28.308,70.317,7.055,65.447,6.145,65.242C2.827,64.399,0.5,61.415,0.5,57.987V7.998C0.5,3.864,3.87,0.5,8.012,0.5h45.572
		l0.5,0.031h17.902c4.143,0,7.513,3.364,7.513,7.498v125.973c0,4.135-3.37,7.498-7.513,7.498H54.459z"/>
	<path fill="#D5D5D5" d="M53.084,1v0.031h1h17.903c3.867,0,7.012,3.139,7.012,6.998v37.992v11.997l0.001,14.861L79,87.678
		l-0.001,5.999v40.324c0,3.859-3.146,6.998-7.012,6.998H54.959v-0.031h-1H36.056c-3.867,0-7.012-3.139-7.012-6.998V77.816l0-0.006
		l0,0v-0.028c0-0.018,0-0.036,0-0.054l-0.001-0.218l-0.008-0.012C28.539,69.989,8.559,65.273,6.281,64.761
		C3.172,63.971,1,61.186,1,57.987V7.998C1,4.139,4.146,1,8.012,1H53.084 M54.084,0H8.012C3.587,0,0,3.581,0,7.998v49.989
		c0,3.735,2.568,6.862,6.035,7.743c4.469,1.006,22.008,5.757,22.008,12.052c0,0.011-0.001,0.021-0.001,0.032l0.001,0.002v56.154
		c0,4.417,3.587,7.998,8.012,7.998h17.903V142h18.028c4.425,0,8.012-3.581,8.012-7.998V93.677L80,87.679
		c0-0.011-0.001-29.649-0.001-29.66V46.021V8.029c0-4.417-3.587-7.998-8.012-7.998H54.084V0L54.084,0z"/>
</g>
</svg>
