<?xml version="1.0" encoding="utf-8"?>
<!-- Generator: Adobe Illustrator 17.0.0, SVG Export Plug-In . SVG Version: 6.00 Build 0)  -->
<!DOCTYPE svg PUBLIC "-//W3C//DTD SVG 1.1//EN" "http://www.w3.org/Graphics/SVG/1.1/DTD/svg11.dtd">
<svg width="100%" height="100%" viewBox="0 0 80 146" preserveAspectRatio="none"
	version="1.1" id="图层_1" xmlns="http://www.w3.org/2000/svg" xmlns:xlink="http://www.w3.org/1999/xlink"  enable-background="new 0 0 80 146" xml:space="preserve">
<g>
	<path fill="#FFFFFF" d="M40.437,141.5l-0.5-0.031H22.035c-4.143,0-7.513-3.363-7.513-7.498L14.52,77.694
		c-0.042-6.25-3.475-11.349-8.375-12.452C2.826,64.399,0.5,61.415,0.5,57.987V7.998C0.5,3.864,3.87,0.5,8.013,0.5h31.55l0.5,0.031
		h31.924c4.143,0,7.513,3.364,7.513,7.498v49.989c0,3.428-2.327,6.412-5.658,7.258c-4.919,1.107-8.363,6.264-8.363,12.537v56.188
		c0,4.135-3.37,7.498-7.513,7.498H40.437z"/>
	<path fill="#D5D5D5" d="M39.063,1v0.031h1h31.925C75.854,1.031,79,4.171,79,8.029v49.989c0,3.199-2.172,5.984-5.255,6.767
		c-5.081,1.144-8.653,6.352-8.763,12.752l-0.004,0.006v0.304v56.154c0,3.859-3.146,6.998-7.013,6.998H40.937v-0.031h-1H22.034
		c-3.867,0-7.013-3.139-7.013-6.998V77.816l0-0.006l0,0v-0.027c0-0.054,0-0.109-0.001-0.163l0-0.104l-0.001-0.001
		c-0.098-6.386-3.674-11.612-8.739-12.752C3.172,63.971,1,61.186,1,57.987V7.998C1,4.139,4.146,1,8.013,1H39.063 M40.063,0H8.013
		C3.587,0,0,3.581,0,7.998v49.989c0,3.735,2.568,6.862,6.035,7.743c4.469,1.006,7.987,5.757,7.987,12.052
		c0,0.011-0.001,0.021-0.001,0.032l0.001,0.002v56.154c0,4.417,3.587,7.998,8.013,7.998h17.903V142h18.028
		c4.425,0,8.013-3.581,8.013-7.998V77.847l0.001-0.002c0-0.011-0.001-0.021-0.001-0.032c0-6.295,3.518-11.046,7.987-12.052
		C77.432,64.881,80,61.753,80,58.018V8.029c0-4.417-3.587-7.998-8.013-7.998H40.063V0L40.063,0z"/>
</g>
</svg>
