<?xml version="1.0" encoding="utf-8"?>
<!-- Generator: Adobe Illustrator 17.0.0, SVG Export Plug-In . SVG Version: 6.00 Build 0)  -->
<!DOCTYPE svg PUBLIC "-//W3C//DTD SVG 1.1//EN" "http://www.w3.org/Graphics/SVG/1.1/DTD/svg11.dtd">
<svg width="100%" height="100%" viewBox="0 0 83 146" preserveAspectRatio="none"
	version="1.1" id="图层_1" xmlns="http://www.w3.org/2000/svg" xmlns:xlink="http://www.w3.org/1999/xlink"  enable-background="new 0 0 83 146" xml:space="preserve">
<g>
	<path fill="#FFFFFF" d="M11.014,141.5c-4.142,0-7.512-3.363-7.512-7.498V8.029c0-4.134,3.37-7.498,7.512-7.498h18.403V0.5h45.571
		c4.143,0,7.513,3.364,7.513,7.498v49.989c0,3.427-2.327,6.412-5.658,7.258c-0.897,0.202-22.218,5.088-22.385,12.45
		c0,0-0.001,0.058-0.001,0.087v56.188c0,4.135-3.37,7.498-7.513,7.498H28.541v0.031H11.014z"/>
	<path fill="#D5D5D5" d="M74.988,1C78.854,1,82,4.139,82,7.998v49.989c0,3.199-2.172,5.984-5.255,6.767
		c-2.3,0.518-22.228,5.221-22.776,12.743l-0.013,0.019v0.3v56.154c0,3.859-3.146,6.998-7.012,6.998H29.041l-1,0.031H11.014
		c-3.867,0-7.012-3.139-7.012-6.998V93.677L4,87.679l0.001-14.799l0.001-14.861V46.021V8.029c0-3.859,3.146-6.998,7.012-6.998
		h17.903l1-0.031H74.988 M74.988,0H28.916v0.031H11.014c-4.425,0-8.012,3.581-8.012,7.998v37.992v11.997
		C3.001,58.029,3,87.668,3,87.679l0.001,5.999v40.324c0,4.417,3.587,7.998,8.012,7.998h18.028v-0.031h17.903
		c4.425,0,8.012-3.581,8.012-7.998V77.816l0.001-0.002c0-0.011-0.001-0.021-0.001-0.032c0-6.295,17.54-11.046,22.008-12.052
		C80.432,64.85,83,61.722,83,57.987V7.998C83,3.581,79.413,0,74.988,0L74.988,0z"/>
</g>
</svg>
