<?xml version="1.0" encoding="utf-8"?>
<!-- Generator: Adobe Illustrator 17.0.0, SVG Export Plug-In . SVG Version: 6.00 Build 0)  -->
<!DOCTYPE svg PUBLIC "-//W3C//DTD SVG 1.1//EN" "http://www.w3.org/Graphics/SVG/1.1/DTD/svg11.dtd">
<svg width="100%" height="100%" viewBox="0 0 60 48" preserveAspectRatio="none"
	version="1.1" id="图层_1" xmlns="http://www.w3.org/2000/svg" xmlns:xlink="http://www.w3.org/1999/xlink"  enable-background="new 0 0 60 48" xml:space="preserve">
<g>
	<path fill="#231815" d="M57,4.292c0.551,0,1,0.449,1,1v26c0,0.551-0.449,1-1,1H3c-0.551,0-1-0.449-1-1v-26c0-0.551,0.449-1,1-1H57
		 M57,2.292H3c-1.657,0-3,1.343-3,3v26c0,1.657,1.343,3,3,3h54c1.657,0,3-1.343,3-3v-26C60,3.635,58.657,2.292,57,2.292L57,2.292z"
		/>
</g>
<rect x="4.793" y="6.542" fill="#231815" width="4.375" height="3.875"/>
<rect x="20.099" y="6.542" fill="#231815" width="4.375" height="3.875"/>
<rect x="12.446" y="6.542" fill="#231815" width="4.375" height="3.875"/>
<rect x="27.752" y="6.542" fill="#231815" width="4.375" height="3.875"/>
<rect x="35.404" y="6.542" fill="#231815" width="4.375" height="3.875"/>
<rect x="23.925" y="13.417" fill="#231815" width="4.375" height="3.875"/>
<rect x="16.272" y="13.417" fill="#231815" width="4.375" height="3.875"/>
<rect x="31.578" y="13.417" fill="#231815" width="4.375" height="3.875"/>
<rect x="31.935" y="20.042" fill="#231815" width="4.375" height="3.875"/>
<rect x="23.568" y="20.042" fill="#231815" width="4.375" height="3.875"/>
<rect x="15.202" y="20.042" fill="#231815" width="4.375" height="3.875"/>
<rect x="40.302" y="20.042" fill="#231815" width="4.375" height="3.875"/>
<rect x="39.231" y="13.417" fill="#231815" width="4.375" height="3.875"/>
<rect x="43.057" y="6.542" fill="#231815" width="4.375" height="3.875"/>
<rect x="4.793" y="13.417" fill="#231815" width="6.375" height="3.875"/>
<rect x="4.793" y="20.042" fill="#231815" width="8.458" height="3.875"/>
<rect x="4.793" y="26.042" fill="#231815" width="4.875" height="3.875"/>
<rect x="12.196" y="26.042" fill="#231815" width="4.875" height="3.875"/>
<rect x="42.807" y="26.042" fill="#231815" width="4.875" height="3.875"/>
<rect x="19.719" y="26.042" fill="#231815" width="20.562" height="3.875"/>
<rect x="50.71" y="6.542" fill="#231815" width="4.375" height="3.875"/>
<rect x="48.71" y="13.417" fill="#231815" width="6.375" height="3.875"/>
<rect x="46.627" y="20.042" fill="#231815" width="8.458" height="3.875"/>
<rect x="50.21" y="26.042" fill="#231815" width="4.875" height="3.875"/>
<polygon points="30,43.099 22.827,37.675 19.377,37.675 30,45.708 40.623,37.675 37.173,37.675 "/>
</svg>
