<?xml version="1.0" encoding="utf-8"?>
<!-- Generator: Adobe Illustrator 17.0.0, SVG Export Plug-In . SVG Version: 6.00 Build 0)  -->
<!DOCTYPE svg PUBLIC "-//W3C//DTD SVG 1.1//EN" "http://www.w3.org/Graphics/SVG/1.1/DTD/svg11.dtd">
<svg width="100%" height="100%" viewBox="0 0 78 86" preserveAspectRatio="none"
	version="1.1" id="图层_1" xmlns="http://www.w3.org/2000/svg" xmlns:xlink="http://www.w3.org/1999/xlink"  enable-background="new 0 0 78 86" xml:space="preserve">
<g>
	<path fill="#757575" d="M75,74c0,4.418-3.582,8-8,8H11c-4.418,0-8-3.582-8-8V14c0-4.418,3.582-8,8-8h56c4.418,0,8,3.582,8,8V74z"/>
	<path fill="#ACB3BD" d="M75,72c0,4.418-3.582,8-8,8H11c-4.418,0-8-3.582-8-8V12c0-4.418,3.582-8,8-8h56c4.418,0,8,3.582,8,8V72z"/>
</g>
</svg>
