<?xml version="1.0" encoding="utf-8"?>
<!-- Generator: Adobe Illustrator 17.0.0, SVG Export Plug-In . SVG Version: 6.00 Build 0)  -->
<!DOCTYPE svg PUBLIC "-//W3C//DTD SVG 1.1//EN" "http://www.w3.org/Graphics/SVG/1.1/DTD/svg11.dtd">
<svg width="100%" height="100%" viewBox="0 0 308 78" preserveAspectRatio="none"
version="1.1" id="图层_1" xmlns="http://www.w3.org/2000/svg" xmlns:xlink="http://www.w3.org/1999/xlink"  enable-background="new 0 0 308 78" xml:space="preserve">
<g>
	<path fill="#757575" d="M304.499,65.931c0,4.418-3.582,8-8,8H12.167c-4.418,0-8-3.582-8-8v-52c0-4.418,3.582-8,8-8h284.332
		c4.418,0,8,3.582,8,8V65.931z"/>
	<path fill="#FFFFFF" d="M304.499,63.931c0,4.418-3.582,8-8,8H12.167c-4.418,0-8-3.582-8-8v-52c0-4.418,3.582-8,8-8h284.332
		c4.418,0,8,3.582,8,8V63.931z"/>
</g>
<g>
	<path d="M171.866,49.959v-8.056h13.448l-30.981-17l-30.981,17h13.116v8.056"/>
</g>
<rect x="136.5" y="54.25" width="35.375" height="4.625"/>
</svg>
