<?xml version="1.0" encoding="utf-8"?>
<!-- Generator: Adobe Illustrator 17.0.0, SVG Export Plug-In . SVG Version: 6.00 Build 0)  -->
<!DOCTYPE svg PUBLIC "-//W3C//DTD SVG 1.1//EN" "http://www.w3.org/Graphics/SVG/1.1/DTD/svg11.dtd">
<svg width="100%" height="100%" viewBox="0 0 62 38" preserveAspectRatio="none"
	version="1.1" id="图层_1" xmlns="http://www.w3.org/2000/svg" xmlns:xlink="http://www.w3.org/1999/xlink"  enable-background="new 0 0 62 38" xml:space="preserve">
<path fill="#ACB3BD" d="M57.473,0.419H18.027L0.239,19l17.788,18.581h39.445c2.368,0,4.288-1.92,4.288-4.288V4.707
	C61.761,2.338,59.841,0.419,57.473,0.419z"/>
<g>
	<path fill="#FFFFFF" d="M46.076,27.361c-0.547,0.547-1.433,0.547-1.98,0L29.354,12.619c-0.547-0.547-0.547-1.433,0-1.98l0,0
		c0.547-0.547,1.433-0.547,1.98,0l14.741,14.741C46.623,25.927,46.623,26.814,46.076,27.361L46.076,27.361z"/>
	<path fill="#FFFFFF" d="M29.354,27.361c-0.547-0.547-0.547-1.433,0-1.98l14.741-14.741c0.547-0.547,1.433-0.547,1.98,0l0,0
		c0.547,0.547,0.547,1.433,0,1.98L31.334,27.361C30.788,27.908,29.901,27.908,29.354,27.361L29.354,27.361z"/>
</g>
</svg>
