<?xml version="1.0" encoding="utf-8"?>
<!-- Generator: Adobe Illustrator 17.0.0, SVG Export Plug-In . SVG Version: 6.00 Build 0)  -->
<!DOCTYPE svg PUBLIC "-//W3C//DTD SVG 1.1//EN" "http://www.w3.org/Graphics/SVG/1.1/DTD/svg11.dtd">
<svg width="100%" height="100%" viewBox="0 0 314 86" preserveAspectRatio="none"
	version="1.1" id="图层_1" xmlns="http://www.w3.org/2000/svg" xmlns:xlink="http://www.w3.org/1999/xlink"  enable-background="new 0 0 314 86" xml:space="preserve">
<g>
	<path fill="#757575" d="M311,74c0,4.418-3.578,8-7.991,8H10.991C6.578,82,3,78.418,3,74V14c0-4.418,3.578-8,7.991-8h292.017
		C307.422,6,311,9.582,311,14V74z"/>
	<path fill="#FFFFFF" d="M311,72c0,4.418-3.578,8-7.991,8H10.991C6.578,80,3,76.418,3,72V12c0-4.418,3.578-8,7.991-8h292.017
		C307.422,4,311,7.582,311,12V72z"/>
</g>
</svg>
